<?xml version="1.0" encoding="UTF-8"?>
<svg id="Layer_2" data-name="Layer 2" xmlns="http://www.w3.org/2000/svg" viewBox="0 0 210 55">
  <defs>
    <style>
      .cls-1 {
        fill: #930909;
      }

      .cls-2 {
        fill: #fff;
      }

      .cls-3 {
        fill: #c1e0f7;
      }

      .cls-4 {
        fill: none;
      }

      .cls-5 {
        fill: #ef4848;
      }

      .cls-6 {
        fill: #042247;
      }

      .cls-7 {
        fill: #cc0606;
      }

      .cls-8 {
        fill: #1d4f90;
      }

      .cls-9 {
        fill: #0f3b6b;
      }

      .cls-10 {
        fill: #3f0202;
      }
    </style>
  </defs>
  <g id="Layer_1-2" data-name="Layer 1">
    <rect class="cls-4" width="210" height="55"/>
    <g>
      <polygon class="cls-8" points="31.5 45 14 45 14 38 28 38 31.5 45"/>
      <path class="cls-8" d="M7,45H0V10h28c3.9,0,7,3.1,7,7v7c0,3.9-3.1,7-7,7h-14v-7h14v-7H7v28Z"/>
    </g>
    <g>
      <path class="cls-8" d="M151.5,39.5h-2c-3.6,0-6.5-2.9-6.5-6.5v-6c0-3.6,2.9-6.5,6.5-6.5h2c3.6,0,6.5,2.9,6.5,6.5v6c0,3.6-2.9,6.5-6.5,6.5ZM149.5,23.5c-1.9,0-3.5,1.6-3.5,3.5v6c0,1.9,1.6,3.5,3.5,3.5h2c1.9,0,3.5-1.6,3.5-3.5v-6c0-1.9-1.6-3.5-3.5-3.5h-2Z"/>
      <path class="cls-8" d="M186,39.5h-5.5c-3.6,0-6.5-2.9-6.5-6.5v-6c0-3.6,2.9-6.5,6.5-6.5h2c3.6,0,6.5,2.9,6.5,6.5v4.5h-12v1.5c0,1.9,1.6,3.5,3.5,3.5h5.5v3ZM177,28.5h9v-1.5c0-1.9-1.6-3.5-3.5-3.5h-2c-1.9,0-3.5,1.6-3.5,3.5v1.5Z"/>
      <path class="cls-8" d="M165,39.5h-3v-12.5c0-3.6,2.9-6.5,6.5-6.5h2.5v3h-2.5c-1.9,0-3.5,1.6-3.5,3.5v12.5Z"/>
      <polygon class="cls-8" points="141 18.5 141 15.5 128 15.5 128 39.5 131 39.5 131 29.5 139 29.5 139 26.5 131 26.5 131 18.5 141 18.5"/>
      <polygon class="cls-8" points="206.2 20.5 201 27.5 195.8 20.5 192 20.5 199.1 30 192 39.5 195.8 39.5 201 32.5 206.2 39.5 210 39.5 202.9 30 210 20.5 206.2 20.5"/>
      <path class="cls-8" d="M79.5,39.5h-2c-3.6,0-6.5-2.9-6.5-6.5v-6c0-3.6,2.9-6.5,6.5-6.5h2c3.6,0,6.5,2.9,6.5,6.5v6c0,3.6-2.9,6.5-6.5,6.5ZM77.5,23.5c-1.9,0-3.5,1.6-3.5,3.5v6c0,1.9,1.6,3.5,3.5,3.5h2c1.9,0,3.5-1.6,3.5-3.5v-6c0-1.9-1.6-3.5-3.5-3.5h-2Z"/>
      <path class="cls-8" d="M117.5,39.5h-2c-3.6,0-6.5-2.9-6.5-6.5v-6c0-3.6,2.9-6.5,6.5-6.5h2c3.6,0,6.5,2.9,6.5,6.5v6c0,3.6-2.9,6.5-6.5,6.5ZM115.5,23.5c-1.9,0-3.5,1.6-3.5,3.5v6c0,1.9,1.6,3.5,3.5,3.5h2c1.9,0,3.5-1.6,3.5-3.5v-6c0-1.9-1.6-3.5-3.5-3.5h-2Z"/>
      <path class="cls-8" d="M98.5,20.5h-2c-1.3,0-2.5.4-3.5,1v-9h-3v20.5c0,3.6,2.9,6.5,6.5,6.5h2c3.6,0,6.5-2.9,6.5-6.5v-6c0-3.6-2.9-6.5-6.5-6.5ZM102,33c0,1.9-1.6,3.5-3.5,3.5h-2c-1.9,0-3.5-1.6-3.5-3.5v-6c0-1.9,1.6-3.5,3.5-3.5h2c1.9,0,3.5,1.6,3.5,3.5v6Z"/>
      <path class="cls-8" d="M55,29.5h4l5.5,10h3.4l-5.6-10.1c2.7-.4,4.7-2.7,4.7-5.4v-3c0-3-2.5-5.5-5.5-5.5h-9.5v24h3v-10ZM55,18.5h6.5c1.4,0,2.5,1.1,2.5,2.5v3c0,1.4-1.1,2.5-2.5,2.5h-6.5v-8Z"/>
    </g>
    <g>
      <path class="cls-9" d="M35,18.78l-6.61-8.76c-.13,0-.26-.02-.39-.02H8.76c.22.67.81,1.35,2.21,1.61,2.64.5,7.26,2.78,10.01,5.39h7.03v7h-1.51c2.04,2.34,4.37,4.56,6.16,5.24,1.44-1.28,2.35-3.14,2.35-5.24v-5.22Z"/>
      <g>
        <path class="cls-7" d="M43.52,22.34c-.36-1.74-4.47-7.25-6.18-8.11.52-3.61-.59-5.45-.59-5.45.83,1.66.72,3.48.59,5.45-.16,2.13-.59,4.06-.59,4.06L15.06,5S16.87.97,23.4.38c2.94-.19,9.1.71,13.43,3.64,6.99,4.7,8.86,18.16,8.86,18.16l-2.17.14Z"/>
        <path class="cls-5" d="M38.79,5.69c-1.83-1.95-4-2.99-6.71-3.95-3.1-1.1-6.86-1.52-8.67-1.35-5.13.48-7.5,3.05-8.13,4.19,1.03.3,4.27,1.57,5.57,2.07,0,0,5.39-8.04,17.94-.95Z"/>
        <path class="cls-1" d="M34.71,16.45l2.03,1.83s.43-1.93.59-4.06c.28-1.95.28-5.11-1.07-6,0,0-.33,4.14-3.14,6.46-.15-.02,1.58,1.76,1.58,1.76Z"/>
        <path class="cls-2" d="M12.66,3.86c.82-.34,8.11,1.97,14.58,5.98,6.19,3.82,11.48,9.65,11.48,10.72.14,2.17-1.49,5-3.58,5.62-.97.32-6.56-4.48-10.54-8.74-3.98-4.26-9.96-7.43-13.98-7.25-4.02.18.4-5.64,2.04-6.33Z"/>
        <path class="cls-3" d="M9.18,9.23c-.33,1.18-.26,1.01,1.44.95,4.02-.18,10,2.99,13.98,7.25,3.98,4.26,9.57,9.06,10.54,8.74,1.96-.72,3.38-4.14,3.62-6.01-.08-.47-1.3-1.74-1.3-1.74,0,0-1.72,6.52-3.98,5.14-10.62-7.64-13.95-14.31-24.3-14.34Z"/>
        <path class="cls-2" d="M42.57,25.72c1.78,1.49,4.25,1.39,5.56-.26,1.31-1.65.46-4.62-1.34-5.96s-3.93-1.02-5.24.63c-1.29,1.5-.94,4.23,1.01,5.59Z"/>
        <path class="cls-10" d="M45.42,18.71c-1.27-4.59-3.12-11.16-8.38-14.85C32.56.91,26.23-.26,23.11.05c-5.13.48-7.45,2.83-8.22,3.94l1.23.29c1.43-1.72,3.35-3.39,7.24-3.75,2.96-.34,9.32.99,13.5,3.9,4.33,2.93,7.27,9.96,7.97,14.25l.6.03ZM37.23,17.83c.32-.83.59-2.15.66-3.1,1.17,1.22,2.72,3.5,3.72,5.03l.49-.42c-1.26-1.87-2.56-3.97-4.18-5.49.06-1.33-.36-4.65-1.63-5.61,2.17,3.83.39,9.02.39,9.02l.54.57Z"/>
        <path class="cls-3" d="M47.82,25.46c2.34-3.84-1.18-5.97-1.18-5.97.22.33,1.87,5.94-3.94,6.41,1.82,1.19,4.16.96,5.12-.44Z"/>
        <path class="cls-6" d="M48.85,21.95c-.25-1.42-1.34-2.6-2.87-3.21-1.06-.42-3.28-.52-4.77,1.43-.75.96-.72,2.23-.41,3.29,1.27,4.29,5.8,3.77,7.05,2.47s1.15-2.89,1-3.99ZM47.88,25.14c-1.09,1.89-3.86,1.46-5.38.32-.69-.56-2.03-3.23-1.06-4.82.97-1.59,2.4-1.99,3.66-1.83s5.02,2.46,2.79,6.33Z"/>
        <path class="cls-6" d="M39.02,20.27c.09-.6-1.92-2.71-1.92-2.71-2.27-2.32-6.22-5.79-9.44-7.94-5-3.46-11.28-5.33-11.28-5.33,0,0-3.47-1.16-4.08-.61-.7.64-6.24,6.88-2.15,7.24,6.52.33,9.49,2.72,14.16,6.89.83.84,9.25,8.57,10.75,8.65,1.33.48,4.02-4.59,3.97-6.18ZM34.59,25.54c-.75-.11-5.59-3.86-9.72-8.14-4.26-4.46-10.4-7.51-14.56-7.35-.69.05-.81-.3-.92-.62-.32-.97,2.51-4.8,3.2-5.32.39-.28,7.91,1.65,13.53,5.23,6.04,3.79,12.12,9.78,12.43,10.74.06,1.7-2.88,6.13-3.96,5.46Z"/>
      </g>
    </g>
  </g>
</svg>