<svg xmlns="http://www.w3.org/2000/svg" viewBox="0 0 6064.08 1456.71"><defs><style>.cls-1,.cls-9{fill:#00aeef;}.cls-1{stroke:#00aeef;}.cls-1,.cls-2,.cls-3,.cls-5,.cls-7{stroke-miterlimit:22.93;}.cls-1,.cls-2,.cls-3,.cls-5{stroke-width:0.22px;}.cls-1,.cls-2,.cls-3,.cls-6,.cls-7,.cls-8{fill-rule:evenodd;}.cls-2,.cls-5{fill:#00a651;stroke:#00a651;}.cls-3,.cls-4,.cls-6{fill:#f5c833;}.cls-3{stroke:#f5c833;}.cls-7{fill:#cd3d32;stroke:#cd3d32;stroke-width:0.5px;}.cls-10,.cls-8{fill:#01a64f;}.cls-11{fill:#04a64d;}</style></defs><title>Ресурс 1</title><g id="Слой_2" data-name="Слой 2"><g id="Layer_1" data-name="Layer 1"><path class="cls-1" d="M1022.68,286.75,1164.88,437l231.26-242.81c43.34-45.51,61.42-97.73,3.91-148.9-62-55.13-95.85-34.71-144.07,12.6Z"/><path class="cls-2" d="M217.25,466.86,643.36,39c56.32-47.88,81.9-53.77,138.3-4.89L1374,640c43.53,44.52,80.33,99,26.56,158.55-54.11,60-114.74,30.06-159.44-14.63l-216-216L805.48,792.77c-42.9,43.93-103.7,63.69-153.81,8.65-52-57.13-31-107.47,13.22-152.94L878.55,428.69,702.67,260.14,357.53,605.28C308.87,654,237.94,707.49,179.05,627.12,127.94,557.39,170.05,514.26,217.25,466.86Z"/><path class="cls-3" d="M38.74,808.34l616.35,621.43q60.36,53.65,120.74,0l462.84-462.85c41.18-41.17,41.72-94.78-5.54-138.85-56.53-52.73-95-31.6-139.15,12.26l-374.5,372.1L187.27,685.13c-46.72-46.29-100.78-80.82-159.42-16.54C-18.22,719.09-1.53,767.74,38.74,808.34Z"/><path class="cls-4" d="M1403.71,1116.45,1578.94,602c39.35-53.4,103-50.77,121.56,1.39L1552,1038.14l248,5.3c43.5,25.2,8.28,83.53-21.57,103.39h0l-345,2.78C1412.65,1150.76,1398.16,1131,1403.71,1116.45Z"/><path class="cls-4" d="M2523.74,1152.48q-82.89,0-119.68-37.6-36.89-37.8-23.11-108.59,3.3-15,8.66-32.24c3.43-11.51,7.53-23,12.21-34.79q41.5-101.68,118.2-159C2571.3,742,2628.28,723,2691.37,723q79.71,0,113.33,37.47t19.47,110.26a366.19,366.19,0,0,1-9.88,38.5c-14.36,46.32-23.5,58.49-65.73,60.84l-245.62-4.94h0l-1.69,5.25a166.08,166.08,0,0,0-5.74,21.35c-4.55,24.69-1.51,43.24,9,55.65s28.94,18.54,55.11,18.54a128.49,128.49,0,0,0,54.09-11.77c17.09-7.93,30.11-18.16,39.11-30.95h0c44-29.09,129.23-23.13,109.31,11.11v1.23c-27.4,39.78-59.45,58.86-103,82.06s-88.62,34.91-135.38,34.91ZM2707.86,895h0l3.16-14.2c4.58-23.54,2.27-41.06-7.07-52.45s-25.78-17-49.43-17q-44.62,0-80.62,33.39Q2553,864.3,2534.9,895h173Z"/><path class="cls-5" d="M2882.35,1054.16c55.13-154.46,87-298.77,143.66-454.91,5.35-14.73,28.19-19.2,44.24-17.72l268,4.38c40.24.65,90.6-7.06,71.87,54.41-15.55,51-59.61,41.27-101.55,41.27H3112.52l-34.67,118.46H3220.1c42.09,0,86-5.39,73.18,56.31-10.36,49.82-52.48,38.46-91,38.46h-151l-55.65,177.35c-15.47,43.11-30,87.72-91,73.47C2854.75,1134,2871.59,1084.32,2882.35,1054.16Z"/><path class="cls-6" d="M2069.79,582.77c-33.44,0-64.46,28.52-69.06,63.48s18.92,63.48,52.36,63.48,64.46-28.52,69.06-63.48S2103.23,582.77,2069.79,582.77Z"/><path class="cls-6" d="M1970.39,766l-102.25,328.09c-8.71,77.49,96.53,73.43,114.32,15.14,30-105.64,64.92-212.27,94.93-317.91C2089.21,728.59,1987.46,723.46,1970.39,766Z"/><path class="cls-6" d="M2221.12,745.77l-54.65,2c-21.52,2.31-41.72,54.31-21.85,67.56h43.71l-78.49,268.25q-16.38,52.67,30.8,65.57l143.07,1c42.72-3.31,73.52-82.8,31.79-87.43l-78.21-5,66.29-235.47H2389c17.88-8.61,38.08-64.25,11.93-76.5l-71.72-1,41-125.82c5.21-28.73-80.82-50.44-106.4-12.28Z"/><path class="cls-5" d="M5568.72,1145.48q-82.89,0-119.68-37.78-36.89-38-23.11-109.11,3.3-15,8.66-32.38c3.43-11.57,7.53-23.13,12.21-35Q5488.31,829.1,5565,771.53C5616.28,733.1,5673.26,714,5736.35,714q79.71,0,113.33,37.65c22.38,25,28.9,62.07,19.47,110.77a372.56,372.56,0,0,1-9.88,38.68c-14.36,46.54-23.5,58.76-65.74,61.12l-245.62-5h0l-1.68,5.27a169.55,169.55,0,0,0-5.75,21.45c-4.54,24.81-1.5,43.44,9,55.91s28.94,18.63,55.11,18.63a128,128,0,0,0,54.09-11.82c17.09-8,30.11-18.25,39.1-31.1h0c44-29.23,129.24-23.24,109.32,11.16V1028c-27.4,40-59.44,59.14-103,82.44s-88.62,35.09-135.38,35.09ZM5752.84,886.8h0l3.16-14.27c4.58-23.64,2.27-41.25-7.07-52.69s-25.78-17.09-49.43-17.09q-44.62,0-80.62,33.54-20.94,19.66-39,50.51h173Z"/><path class="cls-7" d="M5974.73,727.55a89.1,89.1,0,0,1-82.63-55,92.22,92.22,0,0,1-7-36,89.6,89.6,0,0,1,12.18-46.17,89.23,89.23,0,0,1,159.59,10.37,92.05,92.05,0,0,1,7,35.8,93.07,93.07,0,0,1-7,36,88.44,88.44,0,0,1-82.13,55Zm-71.94-91.09q0,21.43,9.5,38.8a70.12,70.12,0,0,0,62.44,37.12,68.69,68.69,0,0,0,36.07-9.85,70.25,70.25,0,0,0,25.87-27.27q9.45-17.35,9.46-38.8a80,80,0,0,0-5.45-29.71,74.09,74.09,0,0,0-15.25-24.07,70.65,70.65,0,0,0-101.82,0,73.62,73.62,0,0,0-15.37,24.19,80.42,80.42,0,0,0-5.45,29.59Zm53.23,7.25h17.7L6000.57,689h17.31l-29-46q26.45-3.36,26.42-28.79c0-10.29-3-17.86-8.87-22.63s-14.94-7.2-27.08-7.2h-38.71V689H5956V643.71Zm0-13.46h18.4a69.53,69.53,0,0,0,13.11-1,14.65,14.65,0,0,0,8.45-4.76c2.13-2.52,3.22-6.25,3.22-11.25q0-15.37-22.21-15.38h-21Z"/><path class="cls-8" d="M3543.87,581.77c-33.44,0-64.46,28.51-69.06,63.47s18.92,63.48,52.36,63.48,64.46-28.52,69.06-63.48S3577.31,581.77,3543.87,581.77Z"/><path class="cls-8" d="M3444.47,765,3342.23,1093.1c-8.72,77.49,96.52,73.43,114.31,15.14,30-105.64,64.93-212.27,94.93-317.91C3563.29,727.58,3461.54,722.45,3444.47,765Z"/><path class="cls-9" d="M1445.3,1449.77V1314h-48.47v-27.65h129.84V1314h-48.35v135.73Zm140-163.38v60.06q15.17-17.68,36.21-17.72a46.32,46.32,0,0,1,19.52,4c5.78,2.66,10.15,6.09,13.08,10.23a37.24,37.24,0,0,1,6,13.85c1.11,5,1.64,12.9,1.64,23.51v69.42h-31.31v-62.54q0-18.6-1.79-23.62a15.71,15.71,0,0,0-6.31-7.95,20.13,20.13,0,0,0-11.3-3,25.66,25.66,0,0,0-13.92,3.81,21.46,21.46,0,0,0-9,11.41q-2.85,7.65-2.85,22.56v59.3H1554V1286.39Zm183.08,125.72,31.23,5.21q-6,17.19-19,26.14c-8.64,6-19.48,9-32.49,9q-30.87,0-45.69-20.17c-7.8-10.76-11.71-24.38-11.71-40.77q0-29.45,15.4-46.11t38.88-16.66q26.41,0,41.69,17.46t14.61,53.45h-78.48c.23,9.28,2.74,16.51,7.57,21.64a23.72,23.72,0,0,0,18.07,7.76,19.2,19.2,0,0,0,12.36-4c3.35-2.7,5.9-7,7.58-12.94Zm1.78-31.65c-.23-9.09-2.55-16-7-20.69a22.55,22.55,0,0,0-33.2.42q-6.69,7.41-6.59,20.27Zm156.14,69.31-39-163.38H1921l24.65,112.22,29.86-112.22h39.22l28.65,114.12,25.07-114.12h33.2L2062,1449.77h-35l-32.52-122.15L1962,1449.77Zm187-60.86a64.41,64.41,0,0,1,7.68-30.21,52.76,52.76,0,0,1,21.8-22.25,64.5,64.5,0,0,1,31.49-7.72q26.82,0,44,17.46t17.15,44.09q0,26.82-17.3,44.51t-43.64,17.65a68.6,68.6,0,0,1-31-7.35,50.49,50.49,0,0,1-22.48-21.56q-7.65-14.22-7.68-34.62Zm32.1,1.67q0,17.64,8.37,27a27.3,27.3,0,0,0,41.16,0q8.34-9.35,8.33-27.2c0-11.56-2.77-20.5-8.33-26.74a27.3,27.3,0,0,0-41.16,0c-5.59,6.24-8.37,15.26-8.37,27Zm150.9,59.19H2265V1331.43H2294v16.81q7.48-11.92,13.43-15.71a24.92,24.92,0,0,1,13.55-3.8,39.61,39.61,0,0,1,20.61,5.93l-9.7,27.28q-7.87-5.09-14.68-5.1a17.26,17.26,0,0,0-11.15,3.61c-3.08,2.4-5.44,6.77-7.19,13.09s-2.62,19.55-2.62,39.68v36.55Zm65.19,0V1286.39h31.31v163.38Zm178.29,0h-29.07v-17.38a46.87,46.87,0,0,1-17.12,15.1,43.82,43.82,0,0,1-19.89,5q-20.43,0-35-16.44t-14.53-45.84q0-30.12,14.15-45.76t35.79-15.67q19.8,0,34.32,16.51v-58.85h31.31v163.38ZM2456.18,1388q0,18.95,5.25,27.43c5,8.14,12.1,12.25,21.15,12.25,7.23,0,13.35-3.08,18.41-9.21s7.57-15.29,7.57-27.46c0-13.58-2.47-23.4-7.34-29.37a23.34,23.34,0,0,0-18.87-9q-11.13,0-18.64,8.87t-7.53,26.47Zm183.3.88a64.41,64.41,0,0,1,7.68-30.21,52.76,52.76,0,0,1,21.8-22.25,64.5,64.5,0,0,1,31.49-7.72q26.82,0,44,17.46t17.15,44.09q0,26.82-17.3,44.51t-43.64,17.65a68.57,68.57,0,0,1-31-7.35,50.49,50.49,0,0,1-22.48-21.56q-7.65-14.22-7.68-34.62Zm32.1,1.67q0,17.64,8.37,27a27.3,27.3,0,0,0,41.16,0q8.34-9.35,8.33-27.2c0-11.56-2.77-20.5-8.33-26.74a27.3,27.3,0,0,0-41.16,0c-5.59,6.24-8.37,15.26-8.37,27Zm107.19-59.15h17.38v-8.94c0-9.93,1.07-17.39,3.2-22.29s6-8.91,11.68-12,12.89-4.6,21.57-4.6a87.7,87.7,0,0,1,26.21,4l-4.23,21.88a60.24,60.24,0,0,0-14.37-1.79c-4.57,0-7.8,1-9.78,3.16s-2.93,6.2-2.93,12.21v8.37h23.4V1356h-23.4v93.73h-31.35V1356h-17.38v-24.61ZM2945,1449.77V1286.39h112V1314h-79v38.65h68.21v27.66H2978v69.42Zm145.34-134.4v-29h31.31v29Zm0,134.4V1331.43h31.31v118.34Zm177.42,0h-31.31v-60.41c0-12.78-.68-21-2-24.8a17.58,17.58,0,0,0-6.54-8.75,18.79,18.79,0,0,0-10.84-3.12,25.17,25.17,0,0,0-14.61,4.45,22.71,22.71,0,0,0-8.86,11.84q-2.4,7.35-2.4,27.19v53.6h-31.31V1331.43H3189v17.38q15.51-20.08,39-20.08a47.18,47.18,0,0,1,18.94,3.73c5.71,2.51,10,5.66,13,9.54a34.57,34.57,0,0,1,6.13,13.17c1.18,4.9,1.75,11.9,1.75,21v73.57Zm61.5-82.24-28.42-5.14c3.2-11.45,8.67-19.89,16.47-25.41s19.4-8.25,34.77-8.25q21,0,31.23,5c6.81,3.31,11.64,7.5,14.42,12.59s4.19,14.42,4.19,28l-.35,36.56q0,15.57,1.53,23a66.65,66.65,0,0,0,5.63,15.86h-31c-.8-2.09-1.83-5.17-3-9.24-.5-1.86-.88-3.08-1.11-3.69a57.13,57.13,0,0,1-17.15,11.72,49.54,49.54,0,0,1-19.52,3.88c-12.17,0-21.8-3.31-28.8-9.89s-10.53-15-10.53-25.11a33.68,33.68,0,0,1,4.79-17.88,31.3,31.3,0,0,1,13.43-12c5.74-2.78,14.07-5.21,24.92-7.3,14.6-2.74,24.76-5.33,30.39-7.69v-3.12c0-6-1.48-10.31-4.45-12.89s-8.56-3.85-16.81-3.85c-5.6,0-9.93,1.11-13.05,3.31s-5.63,6-7.57,11.53Zm41.88,25.41a195.9,195.9,0,0,1-19.06,4.79q-13,2.8-17,5.44c-4.07,2.93-6.13,6.58-6.13,11a15.34,15.34,0,0,0,4.91,11.37,17.08,17.08,0,0,0,12.48,4.79,27.27,27.27,0,0,0,16.17-5.55,19.44,19.44,0,0,0,7.45-10.39c.84-2.66,1.22-7.76,1.22-15.25v-6.24Zm175.66,56.83h-31.31v-60.41c0-12.78-.68-21-2-24.8a17.54,17.54,0,0,0-6.55-8.75,18.76,18.76,0,0,0-10.84-3.12,25.17,25.17,0,0,0-14.61,4.45,22.76,22.76,0,0,0-8.86,11.84q-2.4,7.35-2.4,27.19v53.6h-31.3V1331.43H3468v17.38q15.52-20.08,39-20.08a47.11,47.11,0,0,1,18.94,3.73c5.71,2.51,10.05,5.66,13,9.54a34.55,34.55,0,0,1,6.12,13.17c1.18,4.9,1.75,11.9,1.75,21v73.57Zm141.31-83.34-30.89,5.55q-1.53-9.24-7.07-13.92t-14.31-4.68c-7.83,0-14,2.7-18.67,8.06s-7,14.42-7,27q0,21.06,7.08,29.75c4.72,5.78,11,8.67,19,8.67,6,0,10.8-1.67,14.61-5.06s6.47-9.2,8-17.42l30.77,5.21c-3.19,14.11-9.36,24.8-18.41,32s-21.19,10.81-36.44,10.81q-26,0-41.39-16.36T3578,1390.7q0-29.28,15.49-45.62t41.92-16.35q21.62,0,34.39,9.32t18.33,28.38Zm30.08-51.06v-29h31.31v29Zm0,134.4V1331.43h31.31v118.34Zm93.15-82.24-28.42-5.14c3.2-11.45,8.68-19.89,16.48-25.41s19.4-8.25,34.76-8.25c14,0,24.39,1.67,31.24,5s11.64,7.5,14.41,12.59,4.19,14.42,4.19,28l-.34,36.56c0,10.38.49,18.06,1.52,23a67.09,67.09,0,0,0,5.63,15.86h-31c-.8-2.09-1.83-5.17-3-9.24-.5-1.86-.88-3.08-1.1-3.69a57.17,57.17,0,0,1-17.16,11.72,49.5,49.5,0,0,1-19.52,3.88c-12.17,0-21.79-3.31-28.79-9.89s-10.54-15-10.54-25.11a33.77,33.77,0,0,1,4.79-17.88,31.3,31.3,0,0,1,13.43-12c5.75-2.78,14.08-5.21,24.92-7.3,14.61-2.74,24.76-5.33,30.39-7.69v-3.12c0-6-1.48-10.31-4.45-12.89s-8.56-3.85-16.81-3.85c-5.59,0-9.93,1.11-13.05,3.31s-5.63,6-7.57,11.53Zm41.88,25.41a195.12,195.12,0,0,1-19.06,4.79q-13,2.8-17,5.44c-4.07,2.93-6.12,6.58-6.12,11a15.3,15.3,0,0,0,4.91,11.37,17.06,17.06,0,0,0,12.47,4.79,27.24,27.24,0,0,0,16.17-5.55,19.46,19.46,0,0,0,7.46-10.39c.83-2.66,1.21-7.76,1.21-15.25v-6.24Zm68,56.83V1286.39h31.31v163.38Zm139.93,0V1286.39h112V1314h-79v38.65h68.21v27.66H4094.2v69.42Zm175.32,0h-31.31V1331.43h29.06v16.81q7.48-11.92,13.43-15.71a24.86,24.86,0,0,1,13.54-3.8,39.64,39.64,0,0,1,20.62,5.93l-9.7,27.28c-5.25-3.39-10.16-5.1-14.68-5.1a17.22,17.22,0,0,0-11.15,3.61c-3.08,2.4-5.44,6.77-7.19,13.09s-2.62,19.55-2.62,39.68v36.55Zm133.7-37.66,31.23,5.21q-6,17.19-19,26.14c-8.63,6-19.48,9-32.49,9q-30.87,0-45.68-20.17c-7.8-10.76-11.72-24.38-11.72-40.77q0-29.45,15.41-46.11t38.87-16.66q26.43,0,41.7,17.46t14.61,53.45h-78.48c.23,9.28,2.74,16.51,7.57,21.64a23.72,23.72,0,0,0,18.07,7.76,19.23,19.23,0,0,0,12.36-4c3.35-2.7,5.9-7,7.57-12.94Zm1.79-31.65c-.23-9.09-2.55-16-7-20.69a22.56,22.56,0,0,0-33.21.42c-4.45,4.94-6.66,11.71-6.58,20.27Zm131.49,31.65,31.23,5.21c-4,11.46-10.34,20.17-19,26.14s-19.48,9-32.49,9q-30.87,0-45.69-20.17c-7.8-10.76-11.72-24.38-11.72-40.77q0-29.45,15.41-46.11t38.88-16.66q26.41,0,41.69,17.46t14.61,53.45h-78.48c.23,9.28,2.74,16.51,7.57,21.64a23.72,23.72,0,0,0,18.07,7.76,19.2,19.2,0,0,0,12.36-4c3.35-2.7,5.9-7,7.57-12.94Zm1.79-31.65c-.23-9.09-2.55-16-7-20.69a22.56,22.56,0,0,0-33.21.42c-4.45,4.94-6.66,11.71-6.58,20.27Zm171.52,69.31h-29.07v-17.38a46.87,46.87,0,0,1-17.12,15.1,43.82,43.82,0,0,1-19.89,5q-20.43,0-35-16.44t-14.53-45.84q0-30.12,14.15-45.76t35.8-15.67q19.8,0,34.31,16.51v-58.85h31.31v163.38ZM4593.21,1388q0,18.95,5.25,27.43c5,8.14,12.1,12.25,21.15,12.25,7.23,0,13.35-3.08,18.41-9.21s7.57-15.29,7.57-27.46c0-13.58-2.47-23.4-7.34-29.37a23.34,23.34,0,0,0-18.87-9q-11.13,0-18.64,8.87t-7.53,26.47Zm113.54.88a64.53,64.53,0,0,1,7.68-30.21,52.88,52.88,0,0,1,21.8-22.25,64.57,64.57,0,0,1,31.5-7.72q26.82,0,44,17.46t17.16,44.09q0,26.82-17.31,44.51T4768,1452.44a68.57,68.57,0,0,1-31-7.35,50.51,50.51,0,0,1-22.49-21.56c-5.09-9.48-7.68-21-7.68-34.62Zm32.11,1.67c0,11.76,2.77,20.74,8.37,27a27.3,27.3,0,0,0,41.16,0q8.32-9.35,8.33-27.2c0-11.56-2.78-20.5-8.33-26.74a27.3,27.3,0,0,0-41.16,0c-5.6,6.24-8.37,15.26-8.37,27Zm118.56-59.15h28.87v16.13q15.47-18.82,36.9-18.83,11.36,0,19.71,4.68a36,36,0,0,1,13.73,14.15,54.28,54.28,0,0,1,16.81-14.15,41.27,41.27,0,0,1,19.29-4.68c8.67,0,16.05,1.78,22.06,5.32a32.33,32.33,0,0,1,13.47,15.53c2.17,5.05,3.23,13.23,3.23,24.53v75.66h-31.3v-67.63q0-17.64-3.24-22.75c-2.89-4.45-7.34-6.7-13.35-6.7a21.19,21.19,0,0,0-12.4,4,22.24,22.24,0,0,0-8.33,11.75c-1.71,5.17-2.59,13.31-2.59,24.46v56.83H4929v-64.86c0-11.52-.57-18.94-1.67-22.29a14.15,14.15,0,0,0-5.17-7.45c-2.36-1.64-5.52-2.48-9.55-2.48a22.55,22.55,0,0,0-13,3.92,21.29,21.29,0,0,0-8.33,11.26c-1.68,4.91-2.51,13-2.51,24.38v57.52h-31.31Z"/><path class="cls-10" d="M3774.85,779.41l-1.6-1.43a294.77,294.77,0,0,1,50.55-34.68c21.71-11.91,71.21-28.91,114.59-23.77,27.27,3.22,45.11,14.36,59.37,27.46,30.92,28.41,24.17,76.07,21.68,94.23-1.93,14.18-5.58,28.69-14.16,62.34l-50,183.48q-10.65,32.54-31,49.19t-44.89,16.66q-53.48,0-31.9-65.85l53.91-182.9c11.35-34.64,13.93-56.29,9.74-74.93s-19.68-33-48.47-33q-28.93,0-57.49,16.46c-19,11-30.52,24-44.41,43-11.11,16.14-21.4,46.83-34.92,88.09L3682,1087q-10.52,32.13-30.51,49a69,69,0,0,1-45.73,16.85c-35.66,0-43.29-28.94-28.91-72.86l91.85-299.62Q3679.48,747.5,3699,731c13-11,25.9-17.47,42.81-17.47q25.74,0,34.74,16.67T3774.85,779.41Z"/><path class="cls-10" d="M5355.84,1059.39q-19.17,23.17-50,44.16t-71.66,33.76q-40.83,12.76-86.86,12.78-97.9,0-134.1-58.94t-4.74-158q21.33-67.12,62.85-118.68t98.06-79.72q56.53-28.15,122.69-28.17c27.34,0,52.79,1.57,72.6,10.71,27.58,12.73,43.49,28.64,53.57,56.76,7.36,20.52,5,50.67-12.55,71.43-14.12,16.71-46.77,29.27-62.6,13.44-16.44-16.45-10.6-27-24.93-44.56-9.39-11.48-24.41-18.9-43-19.63-27.05-1.06-62.59,5.84-92.3,35a285.19,285.19,0,0,0-62.59,90.18c-8.69,19.69-17,50.19-17.51,67.36s-.71,62.54,54.11,68.43c49.33,5.31,92.83-21.22,108.21-44,10.34-12.25,48.27-18.56,69-18,26.56.68,34.48,8.45,39.78,18.56S5368.62,1043.94,5355.84,1059.39Z"/><path class="cls-11" d="M4497.65,707.7c-28.5-4.5-58.5,10.5-69.5,32.51-8.15,16.29-10,22-10,22h0s-42.93-36.29-99.34-38.43c-67.66-2.57-146.66,33.43-197.66,108.43s-84.63,173.2-35,254c46.55,75.78,147.65,60.63,182,39,27-17,48-41,48-41s-8.54,21.75-8,39c.5,16,11.5,31,39,30,25-.91,55.5-13,68-53,12.23-39.14,96.09-314.23,105-342C4528.65,731.7,4519.88,711.21,4497.65,707.7Zm-145.5,256.5s-9.64,22.55-44,52c-35,30-82,56-118,35-32.65-19-38-65-14-126,22-56,77.05-109.76,128-121,68-15,91.27,27.5,91.27,27.5Z"/><path class="cls-10" d="M4719.45,779.41l-1.61-1.43a295.16,295.16,0,0,1,50.55-34.68c21.72-11.91,71.22-28.91,114.6-23.77,27.27,3.22,45.11,14.36,59.37,27.46,30.91,28.41,24.16,76.07,21.68,94.23-1.94,14.18-5.58,28.69-14.17,62.34l-50,183.48q-10.66,32.54-31,49.19t-44.88,16.66q-53.49,0-31.91-65.85l53.92-182.9c11.34-34.64,13.93-56.29,9.73-74.93s-19.68-33-48.46-33q-28.93,0-57.5,16.46c-19,11-30.51,24-44.4,43-11.11,16.14-21.41,46.83-34.92,88.09L4626.6,1087q-10.53,32.13-30.52,49a69,69,0,0,1-45.73,16.85c-35.65,0-43.29-28.94-28.9-72.86l91.85-299.62q10.78-32.91,30.25-49.39c12.95-11,25.89-17.47,42.8-17.47q25.74,0,34.75,16.67T4719.45,779.41Z"/></g></g></svg>